<?xml version="1.0" encoding="UTF-8"?>
<!DOCTYPE svg PUBLIC "-//W3C//DTD SVG 1.1//EN" "http://www.w3.org/Graphics/SVG/1.1/DTD/svg11.dtd">
<!-- Creator: CorelDRAW 2020 (64-Bit) -->
<svg xmlns="http://www.w3.org/2000/svg" xml:space="preserve" width="9.5718mm" height="15.9902mm" version="1.1" style="shape-rendering:geometricPrecision; text-rendering:geometricPrecision; image-rendering:optimizeQuality; fill-rule:evenodd; clip-rule:evenodd"
viewBox="0 0 16.75 27.98"
 xmlns:xlink="http://www.w3.org/1999/xlink"
 xmlns:xodm="http://www.corel.com/coreldraw/odm/2003">
 <defs>
  <style type="text/css">
   <![CDATA[
    .fil2 {fill:none}
    .fil0 {fill:#FEFEFE}
    .fil1 {fill:#2DC8BD}
    .fil3 {fill:#2DC8BD;fill-rule:nonzero}
   ]]>
  </style>
    <clipPath id="id0">
     <path d="M6.38 15.77c2.4,0.29 7.19,2.08 9.28,3.69 0.32,0.24 0.74,0.59 1.04,0.77 0.08,-0.73 0.03,-14.87 0.02,-15.85 -0,-0.47 -0.07,-0.45 -0.32,-0.68 -0.28,-0.26 -0.51,-0.47 -0.72,-0.67 -2.18,-1.81 -6.4,-2.87 -9.28,-3.03l-0.02 7.6 0.01 -0 -0.01 8.17zm5.14 -8.46l-0.02 0.02 -0.08 -0.05 0.1 0.02z"/>
    </clipPath>
 </defs>
 <g id="Слой_x0020_1">
  <metadata id="CorelCorpID_0Corel-Layer"/>
  <g id="_2656285114768">
   <path class="fil0" d="M6.38 15.77c2.4,0.29 7.19,2.08 9.28,3.69 0.32,0.24 0.74,0.59 1.04,0.77 0.08,-0.73 0.03,-14.87 0.02,-15.85 -0,-0.47 -0.07,-0.45 -0.32,-0.68 -0.28,-0.26 -0.51,-0.47 -0.72,-0.67 -2.18,-1.81 -6.4,-2.87 -9.28,-3.03l-0.02 7.6 0.01 -0 -0.01 8.17zm5.14 -8.46l-0.02 0.02 -0.08 -0.05 0.1 0.02z"/>
   <g style="clip-path:url(#id0)">
    <g>
     <path id="1" class="fil1" d="M17.69 14.66l-1.75 -0.45c-0.15,0.14 -0.9,1.3 -1.16,1.61 -0.17,-0.09 -0.25,-0.22 -0.4,-0.35l-1.25 -1.14 -0.99 0.62c-0.29,0.18 -0.73,0.5 -1.01,0.62 0.06,-0.18 0.55,-0.85 0.68,-1.05 0.08,-0.12 0.68,-1 0.7,-1.06 0.02,-0.08 -0.58,-2.68 -0.65,-2.81 -0.2,0.17 -0.39,0.37 -0.58,0.56 -0.15,0.15 -0.43,0.47 -0.59,0.57l-1.16 1.18 -0.47 -0.45c-0.16,0.07 -0.68,0.65 -0.84,0.8 -0.22,0.22 -0.56,0.62 -0.82,0.81 -0.13,-0.06 -0.38,-0.34 -0.47,-0.45 -0.22,0.1 -0.98,1.04 -1.22,1.15 -0.13,-0.34 -0.26,-0.56 -0.37,-0.79l0.55 -0.46c0.01,0.02 0.02,0.03 0.03,0.05l0.97 -0.95c0.21,0.11 0.29,0.35 0.51,0.45 0.2,-0.16 0.93,-0.93 1.22,-1.21 0.11,-0.11 0.29,-0.34 0.43,-0.39l0.46 0.44c0.26,-0.14 0.65,-0.72 0.87,-0.81 0.08,-0.15 0.57,-0.61 0.73,-0.76 0.13,-0.13 0.65,-0.69 0.78,-0.74l1.68 1.68c0.2,-0.06 0.38,-0.41 0.61,-0.54 0.15,0.08 0.54,0.52 0.71,0.68 0.21,0.21 0.48,0.49 0.71,0.7 0.21,-0.11 0.5,-0.56 0.71,-0.64l2.34 2.33 -0.96 0.79z"/>
    </g>
   </g>
   <path class="fil2" d="M6.38 15.77c2.4,0.29 7.19,2.08 9.28,3.69 0.32,0.24 0.74,0.59 1.04,0.77 0.08,-0.73 0.03,-14.87 0.02,-15.85 -0,-0.47 -0.07,-0.45 -0.32,-0.68 -0.28,-0.26 -0.51,-0.47 -0.72,-0.67 -2.18,-1.81 -6.4,-2.87 -9.28,-3.03l-0.02 7.6 0.01 -0 -0.01 8.17zm5.14 -8.46l-0.02 0.02 -0.08 -0.05 0.1 0.02z"/>
   <path class="fil0" d="M-0 19.4c2.03,0.4 4.17,0.64 6.22,1.02 0.36,0.07 0.72,0.06 1.08,0.14 0.34,0.08 0.67,0.14 1.02,0.19l8.31 1.32c-0.18,-0.36 -1.86,-1.41 -2.39,-1.74 -0.85,-0.54 -1.83,-1.01 -2.8,-1.4 -0.95,-0.38 -2.11,-0.82 -3.11,-1.09 -0.58,-0.16 -1.14,-0.29 -1.71,-0.42 -0.65,-0.14 -1.25,-0.13 -1.9,-0.23l-0.01 -14.27c-0.84,-0.12 -4.2,-0.71 -4.7,-0.69l0 17.17z"/>
   <path class="fil0" d="M16.56 23.05c-0.61,-0.1 -12.76,-1.6 -13.72,-1.62l0.01 3.23 13.71 -1.61z"/>
   <path class="fil0" d="M12.37 26.14c0.62,-0.28 3.73,-1.73 4.12,-1.83 -0.27,-0.15 -0.63,-0.02 -1.06,0.04l-7.17 1.09 0.01 2.53 4.09 -1.84z"/>
   <path class="fil3" d="M4.38 14.27c-0.11,0.55 -0.42,0.96 -0.91,1.23 -0.3,0.16 -0.61,0.19 -0.94,0.11 -0.27,-0.07 -0.73,-0.18 -0.82,-0.82 -0.08,-0.64 0.47,-0.78 0.62,-0.79 0.05,-0 0.03,0.03 0.02,0.05 -0.04,0.06 -0.07,0.12 -0.09,0.19 -0.08,0.33 0.19,0.71 0.6,0.52 0.41,-0.18 0.22,-0.76 0.15,-0.88 -0.07,-0.12 -0.41,-0.58 -1.08,-0.31 -0.67,0.28 -0.72,0.86 -0.7,1.16 0.03,0.38 0.2,0.71 0.47,0.98 0.34,0.34 0.93,0.55 0.93,0.55 0,0 -0.2,0.85 -0.63,1.43 -0.5,0.66 -1.5,1.45 -1.5,1.45l0.04 -8.73c0,0 0.44,0.38 0.63,0.85 0.18,0.47 0.21,0.62 0.23,0.99 0.01,0.17 -0.03,0.34 -0.06,0.52 -0,0.01 -0.01,0.02 -0,0.04 0.01,-0.01 0.02,-0.02 0.03,-0.03 0.1,-0.11 0.22,-0.2 0.34,-0.28 0.4,-0.25 0.84,-0.35 1.3,-0.26 0.57,0.11 0.98,0.44 1.24,0.95 0.17,0.34 0.22,0.71 0.14,1.09z"/>
  </g>
 </g>
</svg>
