<?xml version="1.0" encoding="UTF-8"?>
<!DOCTYPE svg PUBLIC "-//W3C//DTD SVG 1.1//EN" "http://www.w3.org/Graphics/SVG/1.1/DTD/svg11.dtd">
<!-- Creator: CorelDRAW 2020 (64-Bit) -->
<svg xmlns="http://www.w3.org/2000/svg" xml:space="preserve" width="40.9828mm" height="54.7343mm" version="1.1" style="shape-rendering:geometricPrecision; text-rendering:geometricPrecision; image-rendering:optimizeQuality; fill-rule:evenodd; clip-rule:evenodd"
viewBox="0 0 353.89 472.63"
 xmlns:xlink="http://www.w3.org/1999/xlink"
 xmlns:xodm="http://www.corel.com/coreldraw/odm/2003">
 <defs>
  <style type="text/css">
   <![CDATA[
    .fil0 {fill:#FEFEFE;fill-rule:nonzero}
   ]]>
  </style>
 </defs>
 <g id="Слой_x0020_1">
  <metadata id="CorelCorpID_0Corel-Layer"/>
  <g id="_1663463870016">
   <path class="fil0" d="M323.22 472.63l-292.55 0c-17.3,0 -30.67,-14.15 -30.67,-30.67l0 -410.52c0,-17.3 14.16,-30.67 30.67,-30.67l136.05 0c5.5,0 10.22,4.72 10.22,10.22 0,5.51 -4.72,9.44 -9.44,9.44l-136.84 0c-6.29,0 -11.01,4.71 -11.01,11.01l0 410.52c0,6.28 4.72,11.01 11.01,11.01l292.55 0c6.29,0 11.01,-4.72 11.01,-11.01l0 -410.52c0,-6.29 -4.72,-11.01 -11.01,-11.01l-77.07 0c-5.51,0 -10.23,-4.72 -10.23,-10.22 0,-5.51 4.72,-10.22 10.23,-10.22l77.07 0c17.3,0 30.67,14.15 30.67,30.67l0 410.51c0,17.31 -14.16,31.46 -30.67,31.46z"/>
   <path class="fil0" d="M69.21 468.7c-5.5,0 -10.22,-4.72 -10.22,-10.22l0 -448.26c0,-5.51 4.72,-10.22 10.22,-10.22 5.5,0 10.22,4.72 10.22,10.22l0 448.26c-0.78,5.5 -5.5,10.22 -10.22,10.22z"/>
   <path class="fil0" d="M285.47 276.03l-157.28 0c-5.5,0 -10.22,-4.72 -10.22,-10.22l0 -117.97c0,-5.5 4.72,-10.22 10.22,-10.22l157.28 0c5.5,0 10.22,4.72 10.22,10.22l0 117.97c-0.78,5.5 -5.5,10.22 -10.22,10.22zm-147.84 -19.66l0 0 137.62 0 0 -98.31 -137.62 0 0 98.31z"/>
   <path class="fil0" d="M246.15 118.74c-2.36,0 -4.72,-0.78 -7.08,-3.15l-32.24 -32.24 -32.24 32.24c-3.15,3.15 -7.08,3.94 -11.01,2.36 -3.93,-1.57 -6.29,-4.71 -6.29,-9.44l0 -97.52c0,-5.5 4.72,-10.22 10.22,-10.22l78.64 0c5.5,0 10.22,4.72 10.22,10.22 0,0.78 0,0.78 0,1.58 0,0.78 0,0.78 0,1.57l0 95.15c0,3.94 -2.36,7.87 -6.29,9.44 -1.57,0 -3.14,0 -3.93,0zm-39.32 -58.98l0 0c2.36,0 4.72,0.78 7.08,3.15l22.8 22.8 0 -65.27 -58.98 0 0 64.49 22.81 -22.8c0.78,-1.58 3.14,-2.36 6.29,-2.36z"/>
   <path class="fil0" d="M275.25 325.58l-147.06 0c-5.5,0 -10.22,-4.72 -10.22,-10.22 0,-5.51 4.72,-10.23 10.22,-10.23l147.06 0c5.5,0 10.22,4.72 10.22,10.23 0,5.5 -4.72,10.22 -10.22,10.22z"/>
   <path class="fil0" d="M275.25 374.33l-147.06 0c-5.5,0 -10.22,-4.72 -10.22,-10.22 0,-5.51 4.72,-10.22 10.22,-10.22l147.06 0c5.5,0 10.22,4.71 10.22,10.22 0,5.5 -4.72,10.22 -10.22,10.22z"/>
  </g>
 </g>
</svg>
