<?xml version="1.0" encoding="UTF-8"?>
<!DOCTYPE svg PUBLIC "-//W3C//DTD SVG 1.1//EN" "http://www.w3.org/Graphics/SVG/1.1/DTD/svg11.dtd">
<!-- Creator: CorelDRAW 2020 (64-Bit) -->
<svg xmlns="http://www.w3.org/2000/svg" xml:space="preserve" width="53.7736mm" height="58.4686mm" version="1.1" style="shape-rendering:geometricPrecision; text-rendering:geometricPrecision; image-rendering:optimizeQuality; fill-rule:evenodd; clip-rule:evenodd"
viewBox="0 0 589.8 641.3"
 xmlns:xlink="http://www.w3.org/1999/xlink"
 xmlns:xodm="http://www.corel.com/coreldraw/odm/2003">
 <defs>
  <style type="text/css">
   <![CDATA[
    .fil0 {fill:#FEFEFE;fill-rule:nonzero}
   ]]>
  </style>
 </defs>
 <g id="Слой_x0020_1">
  <metadata id="CorelCorpID_0Corel-Layer"/>
  <g id="_1664008895792">
   <path class="fil0" d="M531.93 133.33c-3.34,0 -6.67,-1.11 -10.02,-4.41l-62.32 -61.7c-5.56,-5.51 -5.56,-14.32 0,-19.83l31.16 -30.86c11.13,-11.02 25.59,-16.53 41.17,-16.53 15.58,0 30.05,5.51 41.18,16.53 11.13,11.02 16.69,25.35 16.69,40.77 0,15.43 -5.56,29.75 -16.69,40.77l-31.16 30.85c-3.33,3.3 -6.67,4.41 -10.02,4.41zm-43.4 -74.93l0 0 42.29 41.87 21.15 -20.94c5.56,-5.51 8.9,-13.23 8.9,-20.93 0,-7.72 -3.34,-15.43 -8.9,-20.94 -5.56,-5.51 -13.35,-8.81 -21.15,-8.81 -7.79,0 -15.58,3.3 -21.14,8.81l-21.15 20.94z"/>
   <g>
    <path class="fil0" d="M294.9 519c-44.5,0 -87.91,-12.13 -125.75,-36.36 -6.67,-4.41 -8.9,-12.13 -4.44,-18.73 4.44,-6.62 12.23,-8.81 18.92,-4.41 33.38,20.94 71.21,31.96 111.27,31.96 40.06,0 77.91,-11.02 111.29,-31.96 6.68,-4.4 15.58,-2.2 18.92,4.41 4.45,6.61 2.23,15.42 -4.45,18.73 -37.84,24.23 -81.23,36.36 -125.75,36.36z"/>
    <path class="fil0" d="M294.9 431.94c-20.02,0 -40.06,-4.4 -58.98,-12.12 -6.67,-3.3 -10.01,-11.02 -6.67,-17.64 3.34,-6.61 11.13,-9.91 17.8,-6.61 15.58,6.61 31.16,9.92 47.85,9.92 16.7,0 32.27,-3.31 47.85,-9.92 6.68,-3.3 15.58,0 17.81,6.61 2.23,6.62 0,15.43 -6.68,17.64 -18.92,8.81 -38.94,12.12 -58.98,12.12z"/>
    <path class="fil0" d="M294.9 244.62c-3.33,0 -6.67,-1.1 -10.01,-4.4 -5.56,-5.51 -5.56,-14.33 0,-19.84l174.71 -171.89c5.56,-5.51 14.47,-5.51 20.04,0 5.56,5.51 5.56,14.32 0,19.83l-174.72 173c-3.34,2.2 -6.67,3.3 -10.02,3.3z"/>
    <path class="fil0" d="M357.22 306.33c-3.35,0 -6.68,-1.11 -10.02,-4.41 -5.56,-5.51 -5.56,-14.32 0,-19.83l174.71 -173c5.57,-5.51 14.47,-5.51 20.03,0 5.57,5.51 5.57,14.32 0,19.83l-174.71 174.1c-3.35,2.2 -6.68,3.31 -10.02,3.31z"/>
    <path class="fil0" d="M144.67 516.79c-3.33,0 -6.67,-1.1 -10.02,-4.41 -5.56,-5.51 -5.56,-14.32 0,-19.83l149.12 -147.65c5.56,-5.51 14.47,-5.51 20.04,0 5.56,5.51 5.56,14.32 0,19.83l-149.12 147.65c-2.23,2.2 -5.56,4.41 -10.02,4.41z"/>
    <path class="fil0" d="M82.35 455.09c-3.35,0 -6.68,-1.11 -10.02,-4.41 -5.57,-5.51 -5.57,-14.32 0,-19.83l149.12 -147.66c5.56,-5.51 14.46,-5.51 20.02,0 5.56,5.51 5.56,14.32 0,19.83l-149.12 147.66c-2.22,2.2 -5.56,4.41 -10.01,4.41z"/>
    <path class="fil0" d="M26.71 571.88c-3.34,0 -6.68,-1.1 -10.02,-4.41 -4.45,-4.4 -5.56,-9.91 -2.23,-15.42l55.64 -116.81c2.23,-4.4 5.57,-6.61 10.02,-7.7 4.44,-1.11 8.9,1.1 12.23,3.3l62.33 61.7c3.34,3.3 4.44,7.72 3.34,12.13 -1.11,4.4 -3.34,7.71 -7.79,9.91l-117.96 55.09c-1.11,2.21 -3.33,2.21 -5.56,2.21zm60.09 -106.88l0 0 -31.15 65.01 65.65 -30.85 -34.5 -34.16z"/>
    <path class="fil0" d="M444.02 516.79c-3.34,0 -6.67,-1.1 -10.01,-4.41l-386.16 -382.35c-5.56,-5.51 -5.56,-14.33 0,-19.84 5.56,-5.51 14.46,-5.51 20.02,0l386.16 382.36c5.56,5.51 5.56,14.32 0,19.83 -2.23,2.2 -6.67,4.41 -10.02,4.41z"/>
    <path class="fil0" d="M506.35 455.09c-3.35,0 -6.68,-1.11 -10.02,-4.41l-386.15 -382.36c-5.56,-5.51 -5.56,-14.32 0,-19.83 5.56,-5.51 14.47,-5.51 20.03,0l386.15 382.36c5.56,5.51 5.56,14.32 0,19.83 -2.22,2.2 -6.67,4.41 -10.01,4.41z"/>
    <path class="fil0" d="M561.99 571.88c-2.23,0 -4.45,0 -5.57,-1.1l-117.96 -55.09c-4.44,-2.2 -6.67,-5.51 -7.79,-9.92 -1.11,-4.41 1.12,-8.81 3.35,-12.12l62.31 -61.71c3.34,-3.3 7.79,-4.4 12.24,-3.3 4.45,1.1 7.79,3.3 10.02,7.72l55.64 116.8c2.23,5.51 1.11,11.02 -2.23,15.43 -2.23,2.2 -5.56,3.3 -10.01,3.3zm-93.49 -73.83l0 0 65.66 30.85 -32.27 -63.91 -33.39 33.06z"/>
    <path class="fil0" d="M57.87 133.33c-3.35,0 -6.68,-1.11 -10.02,-4.41l-31.16 -30.85c-22.26,-22.04 -22.26,-58.4 0,-81.54 11.13,-11.02 25.6,-16.53 41.18,-16.53 15.57,0 30.04,5.51 41.17,16.53l31.16 30.86c5.56,5.51 5.56,14.32 0,19.83l-62.33 62.81c-3.34,2.19 -6.67,3.3 -10.01,3.3zm0 -104.68l0 0c-7.79,0 -15.58,3.3 -21.14,8.81 -12.25,12.12 -12.25,30.85 0,41.87l21.14 20.94 42.28 -41.87 -21.15 -20.94c-5.56,-5.51 -13.35,-8.81 -21.13,-8.81z"/>
    <path class="fil0" d="M482.97 641.3l-389.49 0c-7.79,0 -14.47,-6.61 -14.47,-14.32 0,-7.72 6.68,-14.32 14.47,-14.32l389.49 0c7.79,0 14.46,6.61 14.46,14.32 -1.11,7.72 -7.79,14.32 -14.46,14.32z"/>
    <path class="fil0" d="M371.69 586.21l-166.92 0c-7.79,0 -14.47,-6.61 -14.47,-14.32 0,-7.72 6.68,-14.32 14.47,-14.32l166.92 0c7.79,0 14.47,6.61 14.47,14.32 -1.12,7.72 -7.79,14.32 -14.47,14.32z"/>
    <path class="fil0" d="M399.51 76.03l-209.22 0c-7.79,0 -14.46,-6.61 -14.46,-14.32 0,-7.72 6.67,-14.32 14.46,-14.32l209.22 0c7.78,0 14.46,6.61 14.46,14.32 -1.11,7.72 -7.79,14.32 -14.46,14.32z"/>
    <path class="fil0" d="M343.87 131.13l-97.93 0c-7.79,0 -14.46,-6.61 -14.46,-14.32 0,-7.72 6.67,-14.32 14.46,-14.32l97.93 0c7.79,0 14.46,6.61 14.46,14.32 -1.11,7.72 -7.79,14.32 -14.46,14.32z"/>
   </g>
  </g>
 </g>
</svg>
