<?xml version="1.0" encoding="UTF-8"?>
<!DOCTYPE svg PUBLIC "-//W3C//DTD SVG 1.1//EN" "http://www.w3.org/Graphics/SVG/1.1/DTD/svg11.dtd">
<!-- Creator: CorelDRAW 2020 (64-Bit) -->
<svg xmlns="http://www.w3.org/2000/svg" xml:space="preserve" width="60.9406mm" height="60.342mm" version="1.1" style="shape-rendering:geometricPrecision; text-rendering:geometricPrecision; image-rendering:optimizeQuality; fill-rule:evenodd; clip-rule:evenodd"
viewBox="0 0 8333.8 8251.94"
 xmlns:xlink="http://www.w3.org/1999/xlink"
 xmlns:xodm="http://www.corel.com/coreldraw/odm/2003">
 <defs>
  <style type="text/css">
   <![CDATA[
    .fil0 {fill:#FEFEFE;fill-rule:nonzero}
   ]]>
  </style>
 </defs>
 <g id="Слой_x0020_1">
  <metadata id="CorelCorpID_0Corel-Layer"/>
  <g id="_1664164760912">
   <path class="fil0" d="M4015.34 5821.32c-15.1,0 -30.36,0 -45.42,0l-1545.48 -435.08c-75.91,-29.98 -136.44,-90.04 -136.44,-179.98l0 -1560.46c0,-104.96 90.89,-195 196.97,-195 106.07,0 197.03,90.04 197.03,195l0 1410.41 1393.99 390.03c106.07,30.03 166.72,135.08 136.4,225.03 -30.33,90.04 -106.07,150.05 -197.05,150.05z"/>
   <path class="fil0" d="M4015.34 5821.32c-45.42,0 -75.73,-14.92 -121.16,-44.99 -45.46,-30.03 -75.75,-90.04 -75.75,-150l0 -1470.34c0,-105.04 90.84,-195.08 196.91,-195.08 106.08,0 197.05,90.04 197.05,195.08l0 1230.26 1166.76 -330.03 0 -1410.41c0,-104.96 90.83,-195 196.91,-195 106.07,0 197.03,90.04 197.03,195l0 1560.46c0,89.94 -60.65,164.96 -136.4,179.98l-1545.61 435.08c-30.2,-14.92 -45.42,0 -75.75,0z"/>
   <path class="fil0" d="M4015.34 4335.98c-15.1,0 -45.42,0 -60.51,-15.02l-2303.27 -765.1c-75.75,-30.03 -136.44,-90.04 -136.44,-180.08 0,-75.02 45.59,-150.05 136.44,-180.06l2303.27 -765.12c45.42,-15 75.75,-15 121.16,0l2303.15 765.12c75.75,30.02 136.4,90.02 136.4,180.06 0,90.04 -45.43,150.05 -136.4,180.08l-2303.15 765.1c-15.1,15.02 -30.32,15.02 -60.65,15.02zm-1697.01 -945.18l0 0 1712.24 570.11 1712.24 -570.11 -1712.24 -570.19 -1712.24 570.19z"/>
   <path class="fil0" d="M6333.68 4591.06c-106.08,0 -196.92,-90.04 -196.92,-195.08l0 -1020.2c0,-105.04 90.84,-195 196.92,-195 106.11,0 197.07,89.96 197.07,195l0 1020.2c-15.22,105.04 -90.97,195.08 -197.07,195.08z"/>
   <path class="fil0" d="M6333.68 5236.2c-257.56,0 -484.8,-210.05 -484.8,-480.07 0,-255.1 212.14,-480.11 484.8,-480.11 257.6,0 484.83,210.01 484.83,480.11 -15.1,270.02 -227.23,480.07 -484.83,480.07zm0 -570.11l0 0c-60.65,0 -106.08,45.01 -106.08,105.01 0,60.05 45.43,105.04 106.08,105.04 60.68,0 106.11,-44.99 106.11,-105.04 -15.1,-60.01 -60.65,-105.01 -106.11,-105.01z"/>
   <path class="fil0" d="M4166.83 8251.94c-1106.07,0 -2166.71,-435.08 -2939.43,-1215.34 -787.98,-765.19 -1227.4,-1815.42 -1227.4,-2910.63 0,-1095.23 439.41,-2145.49 1227.4,-2910.69 787.82,-780.2 1833.36,-1215.28 2939.43,-1215.28 1106.19,0 2166.85,435.08 2939.73,1215.28 787.86,780.16 1227.23,1815.46 1227.23,2910.69 0,1095.21 -439.37,2145.45 -1227.23,2910.63 -772.89,780.26 -1833.54,1215.34 -2939.73,1215.34zm0 -7876.87l0 0c-2090.96,0 -3788.11,1680.42 -3788.11,3750.9 0,2070.42 1697.14,3750.86 3788.11,3750.86 2091.1,0 3788.24,-1680.43 3788.24,-3750.86 0,-2070.48 -1697.14,-3750.9 -3788.24,-3750.9z"/>
   <path class="fil0" d="M4166.83 7321.68c-1772.71,0 -3227.35,-1425.33 -3227.35,-3195.71 0,-105.05 90.84,-195.05 196.91,-195.05 106.07,0 197.07,90 197.07,195.05 0,1545.31 1272.66,2820.59 2848.59,2820.59 106.08,0 196.92,90.04 196.92,195.13 -15.1,90.04 -106.08,179.98 -212.14,179.98z"/>
   <path class="fil0" d="M5000.2 7201.66c-75.71,0 -151.45,-59.97 -181.81,-134.99 -30.15,-105.09 30.36,-210.05 136.42,-225.07 394,-105.05 757.62,-300.09 1060.65,-570.19 75.75,-59.97 197.03,-59.97 272.78,15.02 60.69,75.02 60.69,195.12 -15.22,270.14 -348.41,300.05 -757.5,510.1 -1212.14,645.09 -30.33,0 -45.43,0 -60.69,0z"/>
   <path class="fil0" d="M7197.41 4320.96c-106.08,0 -196.91,-89.96 -196.91,-195 0,-1545.36 -1272.96,-2820.65 -2848.77,-2820.65 -106.07,0 -196.91,-90.04 -196.91,-195.09 0,-104.96 90.84,-195 196.91,-195 1772.89,0 3227.53,1425.35 3227.53,3195.72 15.1,120.06 -75.75,210.01 -181.85,210.01z"/>
  </g>
 </g>
</svg>
