<?xml version="1.0" encoding="UTF-8"?>
<!DOCTYPE svg PUBLIC "-//W3C//DTD SVG 1.1//EN" "http://www.w3.org/Graphics/SVG/1.1/DTD/svg11.dtd">
<!-- Creator: CorelDRAW 2020 (64-Bit) -->
<svg xmlns="http://www.w3.org/2000/svg" xml:space="preserve" width="56.3797mm" height="55.6416mm" version="1.1" style="shape-rendering:geometricPrecision; text-rendering:geometricPrecision; image-rendering:optimizeQuality; fill-rule:evenodd; clip-rule:evenodd"
viewBox="0 0 648.73 640.24"
 xmlns:xlink="http://www.w3.org/1999/xlink"
 xmlns:xodm="http://www.corel.com/coreldraw/odm/2003">
 <defs>
  <style type="text/css">
   <![CDATA[
    .fil0 {fill:#FEFEFE;fill-rule:nonzero}
   ]]>
  </style>
 </defs>
 <g id="Слой_x0020_1">
  <metadata id="CorelCorpID_0Corel-Layer"/>
  <path class="fil0" d="M579.65 426.83c0,-37.35 -30.23,-67.23 -68.01,-67.23l-26.99 0c-37.79,0 -68.01,29.88 -68.01,67.23 0,22.4 -18.35,40.55 -41.02,40.55l-119.82 0c-22.67,0 -41.03,-18.14 -41.03,-40.55l0 -26.68c105.79,-7.47 188.91,-93.91 188.91,-199.55 0,-109.9 -90.67,-200.6 -201.86,-200.6 -111.18,0 -201.85,89.63 -201.85,200.6 0,105.64 83.12,192.07 188.9,199.55l0 26.68c0,37.35 30.23,67.22 68,67.22l121.98 0c37.77,0 67.99,-29.88 67.99,-67.22 0,-22.41 18.35,-40.55 39.94,-40.55l26.99 0c22.66,0 41.01,18.14 41.01,40.55l0 1.06c-37.77,6.4 -68,39.48 -68,78.97l0 53.35c0,43.75 36.7,80.03 80.96,80.03 44.26,0 80.96,-36.28 80.96,-80.03l0 -53.35c-2.16,-40.55 -31.3,-73.63 -69.08,-80.03zm-364.85 -58.69l0 0 0 -75.76c15.12,0 29.15,-1.07 43.19,-3.21 -9.71,40.55 -25.91,69.36 -43.19,78.97zm0 -102.44l0 0 0 -53.35 53.98 0c0,17.08 -2.16,34.14 -4.33,49.09 -15.11,2.13 -31.3,4.27 -49.66,4.27zm80.96 -53.35l0 0 76.64 0c-10.8,17.08 -38.86,33.08 -80.96,42.69 3.24,-12.81 4.31,-27.75 4.31,-42.69zm0 -26.67l0 0c0,-14.94 -1.07,-28.81 -3.23,-42.68 41.01,9.6 70.16,26.67 80.96,42.68l-77.73 0zm-26.98 0l0 0 -53.98 0 0 -53.35c17.28,0 34.55,2.13 49.66,4.27 2.17,16 4.33,32.01 4.33,49.09zm-53.98 -80.03l0 0 0 -75.76c17.28,9.6 33.47,38.41 43.19,80.03 -14.04,-2.14 -28.06,-3.2 -43.19,-4.26zm-26.98 -75.76l0 0 0 75.76c-15.12,0 -29.15,1.07 -43.19,3.2 9.71,-40.55 25.91,-68.29 43.19,-78.96zm0 103.51l0 0 0 53.35 -53.98 0c1.09,-17.08 2.16,-33.08 4.33,-49.09 16.18,-3.2 32.38,-4.27 49.66,-4.27zm-80.96 52.29l0 0 -76.64 0c9.71,-17.08 38.86,-33.08 79.87,-42.68 -1.07,13.87 -2.16,28.81 -3.23,42.68zm0 26.67l0 0c0,14.94 1.07,28.81 3.23,42.69 -41.01,-9.6 -70.16,-26.68 -79.87,-42.69l76.64 0zm26.98 0l0 0 53.98 0 0 53.35c-17.28,0 -34.55,-2.14 -49.66,-4.27 -1.08,-14.94 -3.24,-30.95 -4.33,-49.09zm53.98 80.03l0 0 0 75.76c-17.28,-10.67 -33.47,-38.41 -43.19,-80.03 14.04,3.2 29.15,4.27 43.19,4.27zm69.08 71.49l0 0c15.11,-23.47 24.83,-52.29 31.3,-80.03 26.99,-5.33 57.21,-14.94 80.96,-30.94 -18.35,52.29 -60.45,93.91 -112.26,110.97zm111.19 -218.75l0 0c-23.75,-14.94 -52.89,-24.54 -80.96,-30.94 -5.4,-26.68 -15.12,-56.55 -31.3,-80.03 52.89,18.14 94.99,58.69 112.26,110.97zm-221.29 -109.9l0 0c-15.11,22.41 -24.82,52.29 -31.3,80.03 -26.98,5.34 -57.21,14.94 -80.96,30.94 18.35,-53.35 59.38,-93.9 112.26,-110.97zm-111.18 218.75l0 0c22.67,14.94 52.89,24.54 80.96,30.95 5.4,26.68 15.11,56.56 31.3,80.03 -53.97,-18.14 -95,-59.76 -112.26,-110.98zm583.97 305.18l0 0c0,29.88 -23.75,53.35 -53.97,53.35 -30.22,0 -53.97,-23.48 -53.97,-53.35l0 -53.35c0,-24.55 17.27,-45.89 41.02,-51.22l0 38.41c0,7.47 6.47,13.87 14.04,13.87 7.56,0 14.03,-6.4 14.03,-13.87l0 -38.41c22.68,6.4 41.03,26.68 41.03,51.22l0 53.35 -2.17 0z"/>
 </g>
</svg>
