<?xml version="1.0" encoding="UTF-8"?>
<!DOCTYPE svg PUBLIC "-//W3C//DTD SVG 1.1//EN" "http://www.w3.org/Graphics/SVG/1.1/DTD/svg11.dtd">
<!-- Creator: CorelDRAW 2020 (64-Bit) -->
<svg xmlns="http://www.w3.org/2000/svg" xml:space="preserve" width="60.9342mm" height="60.2022mm" version="1.1" style="shape-rendering:geometricPrecision; text-rendering:geometricPrecision; image-rendering:optimizeQuality; fill-rule:evenodd; clip-rule:evenodd"
viewBox="0 0 6279.45 6204.02"
 xmlns:xlink="http://www.w3.org/1999/xlink"
 xmlns:xodm="http://www.corel.com/coreldraw/odm/2003">
 <defs>
  <style type="text/css">
   <![CDATA[
    .fil0 {fill:#FEFEFE;fill-rule:nonzero}
   ]]>
  </style>
 </defs>
 <g id="Слой_x0020_1">
  <metadata id="CorelCorpID_0Corel-Layer"/>
  <g id="_1663463878752">
   <path class="fil0" d="M264.9 1222.38c-65.21,0 -130.41,-53.79 -130.41,-118.37 -10.86,-75.3 43.49,-139.87 119.52,-150.63l923.64 -118.38 -217.31 -656.34c-21.74,-75.27 10.83,-150.6 86.89,-172.11 76.09,-21.53 152.16,10.74 173.88,86.07l271.66 806.96c10.85,43.03 10.85,75.33 -10.83,118.37 -21.74,32.27 -54.38,53.8 -97.81,64.57l-1086.64 139.86c-10.88,0 -21.74,0 -32.6,0z"/>
   <path class="fil0" d="M5437.26 6204.02l-4216.14 0c-65.15,0 -119.53,-43.03 -130.36,-107.61l-1086.66 -4960.09c-10.88,-43.07 0,-86.1 32.61,-118.37l32.58 -32.3c173.85,-172.11 304.29,-312.01 434.71,-441.12 141.21,-139.89 282.49,-290.51 478.07,-484.17 21.75,-21.54 65.18,-43.07 97.82,-43.07l2988.24 0c65.21,0 119.53,43.07 130.39,107.6l597.67 2593.04c21.74,75.36 -32.58,139.93 -97.79,161.4 -76.06,21.53 -141.24,-32.27 -163.02,-96.84l-575.89 -2496.22 -2825.28 0c-173.85,172.16 -304.23,301.3 -434.62,441.14 -130.44,129.17 -260.87,269.01 -423.83,430.41l1043.17 4777.22 3933.64 0 -532.45 -2313.32c-21.72,-75.27 32.63,-139.84 97.81,-161.37 76.06,-21.51 141.28,32.3 162.99,96.87l565.06 2485.39c10.89,43.1 0,86.13 -21.74,118.38 -10.89,21.56 -54.32,43.03 -86.96,43.03z"/>
   <path class="fil0" d="M3513.97 5052.78c-32.64,0 -65.21,-10.77 -97.85,-43.03 -54.32,-53.8 -54.32,-139.9 0,-193.7l2510.16 -2485.46c86.96,-86.07 86.96,-236.68 0,-322.77 -86.95,-86.07 -239.08,-86.07 -326.01,0l-2510.13 2485.45c-54.32,53.8 -141.28,53.8 -195.59,0 -54.32,-53.79 -54.32,-139.86 0,-193.67l2521.03 -2485.46c195.59,-193.64 510.71,-193.64 717.2,0 195.56,193.68 195.56,505.74 0,710.15l-2521.06 2485.46c-21.74,21.5 -54.32,43.03 -97.75,43.03z"/>
   <path class="fil0" d="M2394.73 5644.56c-32.64,0 -65.21,-10.8 -97.85,-43.03 -43.43,-43.1 -54.32,-96.9 -32.58,-150.67l434.66 -946.82c10.85,-10.77 10.85,-32.27 32.6,-43.03l173.85 -172.17c21.74,-21.53 65.21,-43 97.78,-43 32.64,0 65.21,10.77 97.82,43l521.6 516.45c54.32,53.8 54.32,139.89 0,193.7l-173.85 172.17c-10.89,10.71 -21.74,21.48 -43.49,32.23l-956.22 430.38c-21.78,10.8 -32.64,10.8 -54.32,10.8zm543.25 -1000.69l0 0 -271.6 591.78 597.6 -268.98 54.38 -53.8 -326.01 -322.8 -54.38 53.8z"/>
   <path class="fil0" d="M3861.63 4708.44c-32.58,0 -65.18,-10.77 -97.75,-43.03l-521.6 -516.42c-54.32,-53.79 -54.32,-139.89 0,-193.7 54.32,-53.8 141.27,-53.8 195.58,0l521.6 516.48c54.32,53.79 54.32,139.86 0,193.64 -21.74,21.57 -65.2,43.03 -97.84,43.03z"/>
   <path class="fil0" d="M5600.28 2470.48c-32.61,0 -65.17,-10.76 -97.81,-43.02l-260.81 -258.27c-54.32,-53.8 -54.32,-139.84 0,-193.65 54.38,-53.79 141.28,-53.79 195.59,0l260.81 258.21c54.38,53.8 54.38,139.94 0,193.71 -32.58,32.27 -65.21,43.02 -97.79,43.02z"/>
   <path class="fil0" d="M949.49 2298.32c-65.21,0 -119.53,-43 -130.42,-96.81 -21.74,-75.33 21.72,-139.9 97.79,-161.4l2716.61 -677.88c76.09,-21.48 141.28,21.53 162.99,96.87 21.75,75.3 -21.71,139.86 -97.78,161.4l-2716.62 677.82c-10.88,0 -21.71,0 -32.56,0z"/>
   <path class="fil0" d="M1221.12 3105.3c-65.15,0 -119.53,-43.03 -130.36,-96.83 -21.74,-75.34 21.69,-139.9 97.76,-161.4l2716.64 -677.88c76.07,-21.48 141.28,21.56 162.96,96.89 21.75,75.28 -21.68,139.84 -97.78,161.38l-2716.61 677.84c-10.86,0 -21.75,0 -32.61,0z"/>
   <path class="fil0" d="M1492.77 3912.25c-54.32,0 -119.53,-43.03 -130.36,-96.84 -21.74,-75.33 21.72,-150.6 97.79,-161.37l1499.53 -408.9c76.09,-21.47 152.16,21.54 163.05,96.9 21.68,75.27 -21.78,150.6 -97.84,161.37l-1499.53 408.84c-10.89,0 -21.79,0 -32.64,0z"/>
  </g>
 </g>
</svg>
